HIERARCHY
ROOT Hips
{
	OFFSET 0.000000 0.000000 0.000000
	CHANNELS 6 Xposition Yposition Zposition Zrotation Yrotation Xrotation 
	JOINT LHipJoint
	{
		OFFSET 0.000000 0.000000 0.000000
		CHANNELS 3 Zrotation Yrotation Xrotation
		JOINT LeftUpLeg
		{
			OFFSET 1.363060 -1.794630 0.839290
			CHANNELS 3 Zrotation Yrotation Xrotation
			JOINT LeftLeg
			{
				OFFSET 2.448110 -6.726130 0.000000
				CHANNELS 3 Zrotation Yrotation Xrotation
				JOINT LeftFoot
				{
					OFFSET 2.562200 -7.039590 0.000000
					CHANNELS 3 Zrotation Yrotation Xrotation
					JOINT LeftToeBase
					{
						OFFSET 0.157640 -0.433110 2.322550
						CHANNELS 3 Zrotation Yrotation Xrotation
						End Site
						{
							OFFSET 0.000000 0.000000 0.000000
						}
					}
				}
			}
		}
	}
	JOINT RHipJoint
	{
		OFFSET 0.000000 0.000000 0.000000
		CHANNELS 3 Zrotation Yrotation Xrotation
		JOINT RightUpLeg
		{
			OFFSET -1.305520 -1.794630 0.839290
			CHANNELS 3 Zrotation Yrotation Xrotation
			JOINT RightLeg
			{
				OFFSET -2.542530 -6.985550 0.000000
				CHANNELS 3 Zrotation Yrotation Xrotation
				JOINT RightFoot
				{
					OFFSET -2.568260 -7.056230 0.000000
					CHANNELS 3 Zrotation Yrotation Xrotation
					JOINT RightToeBase
					{
						OFFSET -0.164730 -0.452590 2.363150
						CHANNELS 3 Zrotation Yrotation Xrotation
						End Site
						{
							OFFSET 0.000000 0.000000 0.000000
						}
					}
				}
			}
		}
	}
	JOINT LowerBack
	{
		OFFSET 0.000000 0.000000 0.000000
		CHANNELS 3 Zrotation Yrotation Xrotation
		JOINT Spine
		{
			OFFSET 0.028270 2.035590 -0.193380
			CHANNELS 3 Zrotation Yrotation Xrotation
			JOINT Spine1
			{
				OFFSET 0.056720 2.048850 -0.042750
				CHANNELS 3 Zrotation Yrotation Xrotation
				JOINT Neck
				{
					OFFSET 0.000000 0.000000 0.000000
					CHANNELS 3 Zrotation Yrotation Xrotation
					JOINT Neck1
					{
						OFFSET -0.054170 1.746240 0.172020
						CHANNELS 3 Zrotation Yrotation Xrotation
						JOINT Head
						{
							OFFSET 0.104070 1.761360 -0.123970
							CHANNELS 3 Zrotation Yrotation Xrotation
							End Site
							{
								OFFSET 0.000000 0.000000 0.000000
							}
						}
					}
				}
				JOINT LeftShoulder
				{
					OFFSET 0.000000 0.000000 0.000000
					CHANNELS 3 Zrotation Yrotation Xrotation
					JOINT LeftArm
					{
						OFFSET 3.362410 1.200890 -0.311210
						CHANNELS 3 Zrotation Yrotation Xrotation
						JOINT LeftForeArm
						{
							OFFSET 4.983000 -0.000000 -0.000000
							CHANNELS 3 Zrotation Yrotation Xrotation
							JOINT LeftHand
							{
								OFFSET 3.483560 -0.000000 -0.000000
								CHANNELS 3 Zrotation Yrotation Xrotation
								JOINT LeftFingerBase
								{
									OFFSET 0.000000 0.000000 0.000000
									CHANNELS 3 Zrotation Yrotation Xrotation
									JOINT LeftHandIndex1
									{
										OFFSET 0.715260 -0.000000 -0.000000
										CHANNELS 3 Zrotation Yrotation Xrotation
										End Site
										{
											OFFSET 0.000000 0.000000 0.000000
										}
									}
								}
								JOINT LThumb
								{
									OFFSET 0.000000 0.000000 0.000000
									CHANNELS 3 Zrotation Yrotation Xrotation
									End Site
									{
										OFFSET 0.000000 0.000000 0.000000
									}
								}
							}
						}
					}
				}
				JOINT RightShoulder
				{
					OFFSET 0.000000 0.000000 0.000000
					CHANNELS 3 Zrotation Yrotation Xrotation
					JOINT RightArm
					{
						OFFSET -3.136600 1.374050 -0.404650
						CHANNELS 3 Zrotation Yrotation Xrotation
						JOINT RightForeArm
						{
							OFFSET -5.241900 -0.000000 -0.000000
							CHANNELS 3 Zrotation Yrotation Xrotation
							JOINT RightHand
							{
								OFFSET -3.444170 -0.000000 -0.000000
								CHANNELS 3 Zrotation Yrotation Xrotation
								JOINT RightFingerBase
								{
									OFFSET 0.000000 0.000000 0.000000
									CHANNELS 3 Zrotation Yrotation Xrotation
									JOINT RightHandIndex1
									{
										OFFSET -0.622530 -0.000000 -0.000000
										CHANNELS 3 Zrotation Yrotation Xrotation
										End Site
										{
											OFFSET 0.000000 0.000000 0.000000
										}
									}
								}
								JOINT RThumb
								{
									OFFSET 0.000000 0.000000 0.000000
									CHANNELS 3 Zrotation Yrotation Xrotation
									End Site
									{
										OFFSET 0.000000 0.000000 0.000000
									}
								}
							}
						}
					}
				}
			}
		}
	}
}
MOTION
Frames: 8
Frame Time: 0.033333
-0.397231 16.905626 -0.397231 -6.839664 3.756678 1.881542 -2.970989 10.892514 1.521337 -9.555014 -4.622668 -9.856858 -5.051063 -14.245414 -36.370772 1.390944 18.306900 39.098098 0.000000 0.000000 0.000000 -2.859318 -2.413518 -19.921558 28.722740 -10.448815 14.879978 6.533241 -3.699189 2.585589 0.911941 8.543387 -31.621724 0.000000 0.000000 0.000000 -0.904860 -2.952317 20.630398 5.969187 -0.102992 -6.427930 3.525092 -0.432088 -0.521605 3.551536 -0.643320 -7.723267 1.379960 -0.007567 1.663998 0.000000 0.000000 0.000000 8.582414 9.076118 9.939576 -74.670169 -11.961735 -6.206117 -158.753849 -85.169021 179.698284 7.488971 -9.827392 -0.157723 7.574558 -9.783814 0.000000 0.000000 0.000000 0.000000 0.000000 0.000000 0.000000 -8.623549 -8.712910 8.424432 69.262043 7.733984 16.820282 22.234993 70.949630 0.327766 -0.267688 12.032590 0.161716 -0.285288 12.035958 0.000000 0.000000 0.000000 0.000000 0.000000 0.000000 0.000000 
-0.373868 16.945412 -0.225980 -6.521741 2.997575 2.197213 -2.745505 11.280079 1.495601 -10.220788 -4.469810 -9.704844 -5.003446 -13.889623 -35.756405 1.097478 17.458087 37.384108 0.000000 0.000000 0.000000 -2.674449 -3.628713 -19.188513 28.953939 -9.105878 13.503459 5.761154 -4.206933 5.684207 0.617893 9.481316 -32.395263 0.000000 0.000000 0.000000 -0.983042 -2.694384 20.196307 5.656551 -0.002767 -6.141181 3.484402 -0.302743 -0.697421 3.355527 -0.637634 -7.453713 1.430394 -0.014699 1.825681 0.000000 0.000000 0.000000 8.532385 9.208146 9.828945 -74.604837 -12.351162 -7.156720 -157.671225 -84.842494 179.673252 7.537218 -9.525563 -0.170194 7.621707 -9.481902 0.000000 0.000000 0.000000 0.000000 0.000000 0.000000 0.000000 -8.401465 -8.690867 8.316757 69.118911 7.614282 17.278821 21.587490 72.012953 0.336280 -0.338703 12.145257 0.165868 -0.357050 12.148594 0.000000 0.000000 0.000000 0.000000 0.000000 0.000000 0.000000 
-0.348275 16.987016 -0.055301 -6.183287 2.256794 2.541643 -2.545881 11.647788 1.432683 -10.902320 -4.328754 -9.573040 -4.967301 -13.513905 -35.056207 0.825530 16.585793 35.597576 0.000000 0.000000 0.000000 -2.426253 -4.792821 -18.371426 29.092256 -7.670886 12.029332 4.905194 -4.666780 8.726277 0.348524 10.313706 -33.041617 0.000000 0.000000 0.000000 -1.077664 -2.442636 19.736049 5.344709 0.092155 -5.864167 3.445066 -0.180839 -0.877687 3.158799 -0.630136 -7.183099 1.479536 -0.022287 1.987994 0.000000 0.000000 0.000000 8.487594 9.333505 9.708608 -74.533883 -12.738512 -8.082814 -156.618074 -84.539532 179.648894 7.569041 -9.221019 -0.182330 7.652359 -9.177402 0.000000 0.000000 0.000000 0.000000 0.000000 0.000000 0.000000 -8.182766 -8.673454 8.206745 68.976378 7.496714 17.721277 20.917963 73.054937 0.344303 -0.414282 12.252382 0.169773 -0.433427 12.255665 0.000000 0.000000 0.000000 0.000000 0.000000 0.000000 0.000000 
-0.320504 17.029993 0.114408 -5.828111 1.544942 2.910767 -2.370682 11.994213 1.332627 -11.596671 -4.202651 -9.462245 -4.946203 -13.119642 -34.269417 0.577027 15.693512 33.745591 0.000000 0.000000 0.000000 -2.125848 -5.891500 -17.478635 29.129621 -6.163625 10.474276 3.997661 -5.068312 11.673558 0.109484 11.036823 -33.561700 0.000000 0.000000 0.000000 -1.183794 -2.201348 19.252939 5.034840 0.179095 -5.596718 3.406734 -0.068878 -1.062632 2.961400 -0.620814 -6.911632 1.527329 -0.030315 2.150750 0.000000 0.000000 0.000000 8.447733 9.451170 9.578551 -74.457228 -13.123686 -8.983044 -155.592100 -84.260486 179.625268 7.584976 -8.914523 -0.194100 7.667063 -8.871063 0.000000 0.000000 0.000000 0.000000 0.000000 0.000000 0.000000 -7.967764 -8.662010 8.094369 68.834711 7.381285 18.146717 20.228599 74.075341 0.351825 -0.494235 12.353844 0.173425 -0.514225 12.357047 0.000000 0.000000 0.000000 0.000000 0.000000 0.000000 0.000000 
-0.291125 17.073933 0.282787 -5.460137 0.871298 3.299711 -2.218172 12.318901 1.196976 -12.300238 -4.094255 -9.373422 -4.938947 -12.708050 -33.396841 0.353032 14.784574 31.837415 0.000000 0.000000 0.000000 -1.784941 -6.913290 -16.521161 29.057841 -4.608152 8.856117 3.078352 -5.408688 14.493443 -0.095686 11.650426 -33.958055 0.000000 0.000000 0.000000 -1.296495 -1.974193 18.751297 4.728064 0.255718 -5.338333 3.369075 0.030980 -1.252448 2.763407 -0.609652 -6.639469 1.573740 -0.038767 2.313749 0.000000 0.000000 0.000000 8.412458 9.560277 9.438756 -74.374819 -13.506596 -9.856175 -154.591076 -84.005721 179.602429 7.585598 -8.606829 -0.205479 7.666411 -8.563623 0.000000 0.000000 0.000000 0.000000 0.000000 0.000000 0.000000 -7.756735 -8.657683 7.979607 68.694160 7.268056 18.554353 19.521560 75.074045 0.358843 -0.578346 12.449535 0.176823 -0.599228 12.452631 0.000000 0.000000 0.000000 0.000000 0.000000 0.000000 0.000000 
-0.252304 17.123668 0.457560 -5.060036 0.256620 3.753815 -2.108577 12.681926 0.995751 -13.047058 -4.046372 -9.400629 -5.048554 -12.220435 -32.216111 0.154271 13.691894 29.700691 0.000000 0.000000 0.000000 -1.439584 -8.317114 -15.173349 29.023362 -2.693866 6.804864 2.029101 -5.618573 17.439135 -0.323763 12.257970 -34.200514 0.000000 0.000000 0.000000 -1.314365 -1.650338 17.922749 4.662353 0.343378 -4.925433 2.951902 0.253534 -1.608304 2.872352 -0.598418 -6.502233 1.432708 -0.040065 2.231795 0.000000 0.000000 0.000000 7.632013 9.683534 9.698341 -74.155090 -12.441875 -7.006622 -157.242707 -84.678891 179.671433 7.526646 -9.368822 -0.171076 7.610055 -9.325402 0.000000 0.000000 0.000000 0.000000 0.000000 0.000000 0.000000 -7.464273 -8.833267 7.982833 68.613834 6.982675 18.762016 18.882751 75.724714 0.361773 -0.659670 12.514742 0.178202 -0.681510 12.517675 0.000000 0.000000 0.000000 0.000000 0.000000 0.000000 0.000000 
-0.211772 17.173627 0.631034 -4.647119 -0.290360 4.205919 -2.020239 13.030047 0.773045 -13.803103 -4.033121 -9.455110 -5.172034 -11.716210 -30.924036 -0.016098 12.584154 27.504757 0.000000 0.000000 0.000000 -1.080305 -9.611221 -13.771523 28.837141 -0.773375 4.720426 1.034447 -5.769674 20.194711 -0.507266 12.743501 -34.318828 0.000000 0.000000 0.000000 -1.316144 -1.353025 17.061380 4.582675 0.409677 -4.450772 2.530898 0.453334 -2.010608 2.971646 -0.586073 -6.357950 1.295472 -0.040881 2.138805 0.000000 0.000000 0.000000 6.863049 9.795134 9.888129 -73.841499 -11.337156 -4.018081 -160.021173 -85.545706 179.745296 7.386582 -10.139414 -0.134287 7.472473 -10.096309 0.000000 0.000000 0.000000 0.000000 0.000000 0.000000 0.000000 -7.180749 -9.016741 7.985022 68.546318 6.687244 18.954821 18.251931 76.357155 0.364430 -0.741259 12.576637 0.179447 -0.764054 12.579390 0.000000 0.000000 0.000000 0.000000 0.000000 0.000000 0.000000 
-0.170350 17.223457 0.803199 -4.223754 -0.763241 4.646264 -1.951759 13.367218 0.536662 -14.564751 -4.057341 -9.537013 -5.302858 -11.194777 -29.521013 -0.160276 11.463183 25.260201 0.000000 0.000000 0.000000 -0.718036 -10.792804 -12.336163 28.494224 1.115538 2.626991 0.127704 -5.876831 22.744872 -0.648822 13.115739 -34.319930 0.000000 0.000000 0.000000 -1.296100 -1.082912 16.171121 4.483834 0.453473 -3.903869 2.110404 0.628529 -2.459124 3.060812 -0.572787 -6.209415 1.161233 -0.041176 2.032636 0.000000 0.000000 0.000000 6.110871 9.893667 10.010367 -73.441198 -10.213556 -0.910736 -162.971254 -86.610510 179.823582 7.154464 -10.904762 -0.095318 7.242434 -10.862755 0.000000 0.000000 0.000000 0.000000 0.000000 0.000000 0.000000 -6.907176 -9.211083 7.983676 68.491261 6.382605 19.132641 17.629270 76.972522 0.366814 -0.823114 12.635320 0.180557 -0.846860 12.637876 0.000000 0.000000 0.000000 0.000000 0.000000 0.000000 0.000000 
